<?xml version="1.0" encoding="UTF-8" standalone="no"?>
<!-- Created with Inkscape (http://www.inkscape.org/) -->

<svg
   xmlns:dc="http://purl.org/dc/elements/1.1/"
   xmlns:cc="http://creativecommons.org/ns#"
   xmlns:rdf="http://www.w3.org/1999/02/22-rdf-syntax-ns#"
   xmlns:svg="http://www.w3.org/2000/svg"
   xmlns="http://www.w3.org/2000/svg"
   xmlns:sodipodi="http://sodipodi.sourceforge.net/DTD/sodipodi-0.dtd"
   xmlns:inkscape="http://www.inkscape.org/namespaces/inkscape"
   width="110mm"
   height="220mm"
   viewBox="0 0 389.76378 779.52756"
   id="svg2"
   version="1.1"
   inkscape:version="0.91 r13725"
   sodipodi:docname="c-base_business_card_plot.svg">
  <title
     id="title3336">c-base business card</title>
  <defs
     id="defs4">
    <inkscape:perspective
       id="perspective3522"
       inkscape:persp3d-origin="372.04724 : 350.78739 : 1"
       inkscape:vp_z="744.09448 : 526.18109 : 1"
       inkscape:vp_y="0 : 1000 : 0"
       inkscape:vp_x="0 : 526.18109 : 1"
       sodipodi:type="inkscape:persp3d" />
  </defs>
  <sodipodi:namedview
     id="base"
     pagecolor="#ffffff"
     bordercolor="#666666"
     borderopacity="1.0"
     inkscape:pageopacity="0.0"
     inkscape:pageshadow="2"
     inkscape:zoom="3.033331"
     inkscape:cx="202.45439"
     inkscape:cy="120.55677"
     inkscape:document-units="px"
     inkscape:current-layer="layer1"
     showgrid="false"
     inkscape:window-width="1916"
     inkscape:window-height="1041"
     inkscape:window-x="0"
     inkscape:window-y="18"
     inkscape:window-maximized="0" />
  <metadata
     id="metadata7">
    <rdf:RDF>
      <cc:Work
         rdf:about="">
        <dc:format>image/svg+xml</dc:format>
        <dc:type
           rdf:resource="http://purl.org/dc/dcmitype/StillImage" />
        <dc:title>c-base business card</dc:title>
        <dc:date>2016-03-11</dc:date>
        <dc:creator>
          <cc:Agent>
            <dc:title>XenGi &lt;xen@c-base.org&gt;</dc:title>
          </cc:Agent>
        </dc:creator>
        <dc:rights>
          <cc:Agent>
            <dc:title></dc:title>
          </cc:Agent>
        </dc:rights>
        <dc:publisher>
          <cc:Agent>
            <dc:title>XenGi &lt;xen@c-base.org&gt;</dc:title>
          </cc:Agent>
        </dc:publisher>
        <dc:language>en_US</dc:language>
        <dc:subject>
          <rdf:Bag>
            <rdf:li>c-base space station business card</rdf:li>
          </rdf:Bag>
        </dc:subject>
        <dc:description>business card for c-base members.
plot out the c-base logo and your member name and put it on a round piece of cardboard with a diameter of 55mm.</dc:description>
        <cc:license
           rdf:resource="http://creativecommons.org/publicdomain/zero/1.0/" />
      </cc:Work>
      <cc:License
         rdf:about="http://creativecommons.org/publicdomain/zero/1.0/">
        <cc:permits
           rdf:resource="http://creativecommons.org/ns#Reproduction" />
        <cc:permits
           rdf:resource="http://creativecommons.org/ns#Distribution" />
        <cc:permits
           rdf:resource="http://creativecommons.org/ns#DerivativeWorks" />
      </cc:License>
    </rdf:RDF>
  </metadata>
  <g
     inkscape:label="Layer 1"
     inkscape:groupmode="layer"
     id="layer1"
     transform="translate(0,-272.83464)">
    <path
       inkscape:connector-curvature="0"
       id="path4501"
       style="fill:#000000;fill-opacity:1;fill-rule:evenodd;stroke:none;stroke-opacity:1"
       d="m 133.70229,955.00088 c 0,19.22811 -15.94503,35.05437 -35.318296,35.05437 -19.374212,0 -35.319245,-15.82626 -35.319245,-35.05437 0,-19.22999 15.945033,-35.05625 35.319245,-35.05625 19.373266,0 35.318296,15.82626 35.318296,35.05625 z M 98.148627,861.02362 c -51.893934,0 -94.6053196,42.39111 -94.6053196,93.89764 0,51.50744 42.7113886,93.89764 94.6053196,93.89764 21.458293,0 41.361243,-7.245 57.309103,-19.3895 l -6.65132,-8.9765 c 0.0143,-0.011 0.0278,-0.023 0.0421,-0.034 l -4.53671,-6.0448 c -12.78846,9.8154 -28.79629,15.6871 -46.053691,15.6995 l 0.0042,-23.1511 c 28.734511,0 52.380641,-23.4799 52.380641,-52.00154 2e-5,-14.48887 -6.10391,-27.67585 -15.87636,-37.14456 l 16.841,-16.44504 c -0.007,-0.007 -0.014,-0.0141 -0.0211,-0.0211 l 5.12223,-5.03797 c -15.09271,-14.83421 -35.80191,-24.04835 -58.505387,-24.04835 -0.01826,0 -0.03649,-10e-6 -0.05475,0 l 0,-11.20065 z m -37.214155,54.93287 -6.910204,-7.04877 c 0,0 4.371782,-4.69509 10.339386,-8.10731 5.968545,-3.41315 10.62971,-5.16356 10.62971,-5.16356 l -1.856928,-4.25207 c 0,0 -5.632982,2.32257 -11.29518,5.65937 -4.601778,2.71092 -11.050109,8.77467 -11.050109,8.77467 l -3.682738,-3.40939 c 0,0 12.68269,-12.87686 29.350693,-17.64924 15.797982,-4.52354 29.393108,-2.73167 29.393108,-2.73167 l -2.18871,19.37516 c 0,0 -11.616616,-1.2169 -23.320888,2.64776 -11.225426,3.70631 -19.40814,11.90505 -19.40814,11.90505 M 112.29677,902.5216 c 0,0 3.04555,0.95486 5.99117,1.87766 2.99558,0.93883 6.14953,3.13038 6.14953,3.13038 l 9.30252,-16.27588 c 0,0 -3.62618,-2.19155 -7.88391,-3.91274 -4.25679,-1.72118 -8.35616,-2.50355 -8.35616,-2.50355 l -5.20315,17.68413 m 13.84869,6.02793 c 0,0 2.4338,1.39976 3.88917,2.42249 1.8918,1.33095 4.56125,4.12576 4.56125,4.12576 l 13.33496,-13.43677 c 0,0 -2.4074,-2.48658 -6.07034,-5.24275 -3.66389,-2.75616 -6.0779,-3.84863 -6.0779,-3.84863 l -9.63714,15.9799 m 6.21645,81.59433 -8.35144,-8.44193 c 0,0 -4.17384,3.68745 -10.73245,6.98373 -5.38413,2.7062 -13.736511,3.25102 -13.736511,3.25102 l 0.189455,11.80232 c 0,0 9.875626,0.2149 18.861436,-4.19082 8.83123,-4.3303 13.76951,-9.40432 13.76951,-9.40432 m -40.983328,-110.96199 -2.666617,0.27806 -0.509945,-4.82516 2.666617,-0.27808 0.509945,4.82518 m 22.274588,-3.72893 2.62231,0.55237 -1.01706,4.74599 -2.62136,-0.55331 1.01611,-4.74505 m 4.45285,0.99728 2.58932,0.6881 -1.26497,4.6866 -2.58933,-0.68903 1.26498,-4.68567 m 4.13707,1.17258 2.54974,0.82196 -1.51005,4.61404 -2.54973,-0.82196 1.51004,-4.61404 m -103.292985,57.90961 0.693754,-2.57047 4.721487,1.25649 -0.693754,2.56953 -4.721487,-1.25555 m 49.190549,-50.56203 -2.448875,1.08304 -1.987005,-4.43305 2.448878,-1.0821 1.987002,4.43211 m -8.30054,-1.40919 2.388549,-1.2084 2.218882,4.32276 -2.388549,1.20747 -2.218882,-4.32183 m -3.765689,2.07372 2.320681,-1.33 2.444163,4.20117 -2.320681,1.33095 -2.444163,-4.20212 m -3.546063,2.32163 2.248102,-1.44877 2.661903,4.06825 -2.248101,1.44973 -2.661904,-4.06921 m -3.500817,2.4451 2.167979,-1.56377 2.873047,3.92499 -2.16798,1.56377 -2.873046,-3.92499 m -3.393364,2.63363 2.083149,-1.67406 3.075703,3.7704 -2.082203,1.67406 -3.076649,-3.7704 m -3.136031,2.84383 1.991715,-1.78058 3.270824,3.60545 -1.992659,1.78057 -3.26988,-3.60544 m -3.016321,2.91734 1.894626,-1.88143 3.456516,3.43013 -1.895569,1.88143 -3.455573,-3.43013 m -2.936201,3.12755 1.793769,-1.97663 3.631839,3.24632 -1.793767,1.97663 -3.631841,-3.24632 m -2.649651,3.29628 1.686314,-2.06807 3.79868,3.05308 -1.686312,2.06713 -3.798682,-3.05214 m -2.589323,3.45274 1.576028,-2.15195 3.95421,2.85136 -1.576029,2.1529 -3.954209,-2.85231 m 3.152056,3.95704 -1.460088,2.23208 -4.098426,-2.644 1.460088,-2.23113 4.098426,2.64305 m -7.656743,3.2548 1.340379,-2.30372 4.233217,2.42531 -1.340377,2.30372 -4.233219,-2.42531 m -2.00114,3.75626 1.216896,-2.37064 4.355756,2.20286 -1.216896,2.3697 -4.355756,-2.20192 m -1.818279,3.87503 1.09059,-2.43002 4.4651,1.97286 -1.090589,2.43097 -4.465101,-1.97381 m -1.494019,3.94761 0.960509,-2.48375 4.563128,1.73816 -0.960509,2.48375 -4.563128,-1.73816 m -1.352632,3.95798 0.828544,-2.52994 4.647965,1.49874 -0.828546,2.53088 -4.647963,-1.49968 m 1.65332,30.37342 0.27901,2.64588 -4.860047,0.50617 -0.279953,-2.64588 4.86099,-0.50617 m -5.055165,-1.03781 -0.140447,-2.65719 4.881727,-0.25356 0.139504,2.65719 -4.880784,0.25356 m 49.368699,68.70806 -2.448876,-1.0821 1.987944,-4.4312 2.448877,1.0812 -1.987945,4.4321 M 24.2692,988.9477 l -1.090589,-2.43097 4.465098,-1.97286 1.090589,2.43096 -4.465098,1.97287 m 1.8852,3.8147 -1.216896,-2.37064 4.355756,-2.20286 1.216898,2.37064 -4.355758,2.20286 m 2.089747,3.73741 -1.339438,-2.30371 4.232278,-2.42626 1.340378,2.30466 -4.233218,2.42531 m 2.339532,3.51969 -1.460088,-2.23115 4.09937,-2.64211 1.460089,2.23113 -4.099371,2.64213 m 2.430968,3.4131 -1.575086,-2.1519 3.954209,-2.85139 1.575084,2.15199 -3.954207,2.8513 m 2.653419,3.368 -1.687254,-2.0672 3.79868,-3.054 1.687254,2.0681 -3.79868,3.0531 m 2.864563,3.1134 -1.792826,-1.9776 3.631841,-3.2463 1.793767,1.9775 -3.632782,3.2464 m 2.775016,3.2368 -1.894627,-1.8814 3.455574,-3.4301 1.895568,1.8814 -3.456515,3.4301 m 3.152056,2.9136 -1.991714,-1.7796 3.269881,-3.6054 1.992658,1.7805 -3.270825,3.6045 m 3.319839,2.6308 -2.083148,-1.675 3.076648,-3.7694 2.083149,1.674 -3.076649,3.7704 m 3.425411,2.5488 -2.168923,-1.5638 2.873045,-3.9249 2.168923,1.5637 -2.873045,3.925 m 3.985315,-3.1285 2.247158,1.4497 -2.66096,4.0674 -2.247161,-1.4488 2.660963,-4.0683 m 3.280249,7.6002 -2.321625,-1.3309 2.444163,-4.2012 2.321626,1.33 -2.444164,4.2021 m 3.727985,1.9446 -2.38855,-1.2075 2.218882,-4.3227 2.38855,1.2084 -2.218882,4.3218 m 28.823777,8.0206 -2.665673,-0.279 0.510888,-4.8243 2.665673,0.2781 -0.510888,4.8252 m 4.243589,0.1904 -2.676039,-0.1395 0.25545,-4.845 2.676983,0.1395 -0.256394,4.845 m 1.537382,0 2.680568,0 0,-4.8515 -2.680568,0 0,4.8515 z m 6.979022,-0.092 -2.67699,0.1385 -0.25639,-4.8449 2.67698,-0.1386 0.2564,4.845 m 4.22095,-0.4713 -2.66567,0.2781 -0.51089,-4.8243 2.66568,-0.278 0.51088,4.8242 m 4.31429,-0.5788 -2.64683,0.4157 -0.76444,-4.7912 2.64682,-0.4166 0.76445,4.7921 m 4.22851,-0.8181 -2.62231,0.5533 -1.01613,-4.746 2.62137,-0.5524 1.01707,4.7451 m 4.09465,-1.1199 -2.58933,0.6881 -1.26496,-4.6856 2.58932,-0.6891 1.26497,4.6866 m 4.09089,-1.2517 -2.54879,0.8219 -1.51099,-4.614 2.54974,-0.822 1.51004,4.6141 m 4.04659,-1.4639 -2.50261,0.953 -1.75136,-4.5292 2.50261,-0.9539 1.75136,4.5301 m 3.86842,-1.7429 -2.44792,1.0821 -1.98889,-4.4321 2.44886,-1.0821 1.98795,4.4321 m 3.777,-1.8493 -2.38761,1.2074 -2.21982,-4.3227 2.38855,-1.2075 2.21888,4.3228 m 3.7657,-2.0747 -2.32069,1.3309 -2.44416,-4.2021 2.32163,-1.33 2.44322,4.2012 m 3.547,-2.3216 -2.2481,1.4497 -2.66191,-4.0692 2.24716,-1.4488 2.66285,4.0683 m -18.78508,-67.16031 c 0,14.59428 -12.10111,26.6049 -26.803789,26.6049 -14.703632,0 -26.804733,-12.01062 -26.804733,-26.6049 0,-14.59334 12.101101,-26.60395 26.804733,-26.60395 14.702679,0 26.803789,12.01061 26.803789,26.60395 M 64.106323,919.528 l 8.352389,8.44193 c 0,0 4.173832,-3.68745 10.732451,-6.98373 5.384133,-2.7062 13.735571,-3.25103 13.735571,-3.25103 l -0.189468,-11.8023 c 0,0 -9.875624,-0.21491 -18.861437,4.19081 -8.831222,4.3303 -13.769506,9.40432 -13.769506,9.40432 m 69.788257,0.69658 -8.50602,8.29017 c 0,0 3.71573,4.14273 7.0365,10.65233 2.726,5.3436 3.2746,13.63377 3.2746,13.63377 l 11.8909,-0.18757 c 0,0 0.21775,-9.80211 -4.2219,-18.72193 -4.36236,-8.7643 -9.47408,-13.66677 -9.47408,-13.66677 m -70.96368,69.35278 8.506029,-8.28923 c 0,0 -3.715733,-4.14273 -7.036515,-10.65327 -2.726942,-5.34361 -3.275535,-13.63284 -3.275535,-13.63284 l -11.890907,0.18758 c 0,0 -0.216798,9.8021 4.221908,18.72193 4.363299,8.7643 9.47502,13.66583 9.47502,13.66583 m 50.37446,-34.51615 c 0,-8.17612 -6.78013,-14.9044 -15.017516,-14.9044 -8.237388,0 -15.016572,6.72828 -15.016572,14.9044 0,8.17612 6.779184,14.9044 15.016572,14.9044 8.237386,0 15.017516,-6.72828 15.017516,-14.9044 z m 2.92677,-0.1395 c 0,9.84734 -8.16481,17.95088 -18.084729,17.95088 -9.920875,0 -18.085676,-8.10354 -18.085676,-17.95088 0,-9.84547 8.164801,-17.94995 18.085676,-17.94995 9.919919,0 18.084729,8.10448 18.084729,17.94995 m -19.461866,-24.28139 2.776893,0 0.04336,4.31711 -2.860789,0 0.04053,-4.31711 m 5.620722,0.30917 2.70243,0.63814 -0.95203,4.2106 -2.78444,-0.65794 1.03404,-4.1908 m 5.33699,1.52984 2.48281,1.24329 -1.89744,3.87409 -2.55916,-1.281 1.97379,-3.83638 m 5.25878,2.91546 2.12933,1.78058 -2.72695,3.3368 -2.1953,-1.83524 2.79292,-3.28214 m 4.02491,3.94479 1.66368,2.22359 -3.4254,2.61949 -1.71366,-2.29052 3.47538,-2.55256 m 3.11717,4.61214 1.10756,2.54502 -3.93537,1.75701 -1.14054,-2.62326 3.96835,-1.67877 m 2.05769,5.30873 0.4911,2.7326 -4.23039,0.80309 -0.50711,-2.81555 4.2464,-0.72014 m 0.59856,5.67162 -0.14988,2.77219 -4.30391,-0.19323 0.15458,-2.85608 4.29921,0.27712 m -0.56839,5.50385 -0.7833,2.6619 -4.14273,-1.18202 0.80781,-2.74485 4.11822,1.26497 m -2.00302,5.53306 -1.37432,2.41117 -3.76286,-2.09917 1.41767,-2.48469 3.71951,2.17269 m -3.10399,4.82329 -1.89274,2.02942 -3.17845,-2.90793 1.95118,-2.09163 3.12001,2.97014 m -4.01359,3.84487 -2.30938,1.54021 -2.41964,-3.56398 2.37912,-1.58734 2.3499,3.61111 m -5.02689,2.65907 -2.60064,0.96805 -1.5402,-4.03338 2.68076,-0.99728 1.46008,4.06261 m -5.50007,1.74381 -2.754276,0.34405 -0.573109,-4.27752 2.838165,-0.35347 0.48922,4.28694 m -5.484044,0.43737 -2.758993,-0.29975 0.430766,-4.29166 2.842889,0.30823 -0.514662,4.28318 m -5.671639,-0.89264 -2.616648,-0.92564 1.40353,-4.07769 2.695841,0.95392 -1.482723,4.04941 m -5.268182,-2.09352 -2.332944,-1.5025 2.302777,-3.64315 2.404575,1.54869 -2.374408,3.59696 m -4.571613,-3.21332 -1.924797,-1.99832 3.080425,-3.01255 1.983232,2.05959 -3.13886,2.95128 m -3.836385,-4.31523 -1.412966,-2.38761 3.687463,-2.22359 1.455373,2.46113 -3.72987,2.15007 m -2.659082,-4.88927 -0.825716,-2.6487 4.100314,-1.30928 0.850222,2.72883 -4.12482,1.22915 m -1.415783,-5.4077 -0.194173,-2.76747 4.291657,-0.32708 0.200777,2.85136 -4.298261,0.24319 m 8.034723,-21.54124 2.130279,-1.77963 2.809892,3.28119 -2.194375,1.8343 -2.745796,-3.33586 m 4.474533,-3.29062 2.481867,-1.24329 1.97757,3.83921 -2.558215,1.28099 -1.901222,-3.87691 m 5.013689,-2.22077 2.701488,-0.63908 1.034973,4.18986 -2.783498,0.65793 -0.952963,-4.20871 m -17.678472,21.36404 0.447736,-2.73826 4.253011,0.66925 -0.461876,2.82121 -4.238871,-0.7522 m 1.164106,-5.35963 1.06514,-2.56104 3.985321,1.6373 -1.097194,2.63928 -3.953267,-1.71554 m 25.539759,40.77879 c 0,0 -3.716665,0.42322 -9.103629,-0.77953 -5.36057,-1.19711 -9.307245,-3.66861 -9.307245,-3.66861 l 2.402701,-4.28317 c 0,0 4.318993,2.08974 7.578495,2.81837 3.059694,0.68433 8.055468,0.58724 8.055468,0.58724 l 0.37421,5.3257 m 30.81738,-25.14764 c 0,0 -0.74277,3.63938 -3.56115,8.35238 -2.80234,4.69038 -6.39083,7.65297 -6.39083,7.65297 l -3.34906,-3.59225 c 0,0 3.33587,-3.43106 5.04292,-6.28337 1.60053,-2.67604 3.0512,-7.42204 3.0512,-7.42204 l 5.20692,1.29231 m -64.306086,3.8345 c 0,0 -1.553407,-3.37734 -2.065238,-8.83406 -0.509947,-5.42937 0.638142,-9.91992 0.638142,-9.91992 l 4.844964,0.93411 c 0,0 -0.666417,4.72243 -0.358187,8.0253 0.290319,3.09928 1.926676,7.78494 1.926676,7.78494 l -4.986357,2.00963 m 8.418359,-36.60684 c 0,0 2.573312,-2.69489 7.479541,-5.20975 4.88078,-2.50354 9.505179,-3.12849 9.505179,-3.12849 l 0.942598,4.79878 c 0,0 -4.661158,1.15469 -7.631281,2.67604 -2.786329,1.42804 -6.551084,4.68944 -6.551084,4.68944 l -3.744953,-3.82602 m 39.137717,-5.04856 c 0,0 3.37733,1.59582 7.3042,5.45011 3.90709,3.83356 5.93463,8.00551 5.93463,8.00551 l -4.31146,2.36027 c 0,0 -2.54691,-4.04281 -4.92226,-6.37575 -2.22926,-2.18966 -6.51808,-4.73468 -6.51808,-4.73468 l 2.51297,-4.70546 m -13.45091,29.49397 c 0,1.46008 -1.210293,2.66096 -2.679805,2.66096 -1.470456,0 -2.680757,-1.20088 -2.680757,-2.66096 0,-1.45915 1.210301,-2.66002 2.680757,-2.66002 1.469512,0 2.679805,1.20087 2.679805,2.66002" />
    <path
       inkscape:connector-curvature="0"
       id="path4300"
       style="font-style:normal;font-variant:normal;font-weight:normal;font-stretch:normal;font-size:34.44448853px;line-height:125%;font-family:ceva;-inkscape-font-specification:ceva;letter-spacing:0px;word-spacing:0px;fill:#000000;fill-opacity:1;stroke:none;stroke-width:1px;stroke-linecap:butt;stroke-linejoin:miter;stroke-opacity:1"
       d="m 271.25942,880.72065 q -1.7912,0.7233 -2.54901,2.51433 l -2.96238,-1.2055 q 0.68892,-1.51549 1.72232,-2.54877 1.03338,-1.06773 2.58345,-1.6877 l 1.20562,2.92764 0,0 z m 6.16586,2.5832 q -0.68892,-1.8599 -2.58345,-2.5832 l 1.2745,-2.92764 q 2.99682,1.23994 4.23688,4.27091 l -2.92793,1.23993 0,0 z m -2.58345,6.16527 q 1.82564,-0.7233 2.58345,-2.58321 l 2.92793,1.2055 q -1.24006,2.99652 -4.27132,4.27091 l -1.24006,-2.8932 0,0 z m -6.16588,-2.58321 q 0.79227,1.85991 2.58347,2.58321 l -1.20562,2.8932 q -3.03126,-1.23995 -4.30577,-4.27091 l 2.92792,-1.2055 0,0 z m 2.51458,-1.82547 q 0,-0.75774 0.55113,-1.30883 0.55114,-0.58552 1.34341,-0.58552 0.79226,0 1.3434,0.58552 0.55113,0.55109 0.55113,1.30883 0,0.79219 -0.55113,1.34327 -0.55114,0.55109 -1.3434,0.55109 -0.79227,0 -1.34341,-0.55109 -0.55113,-0.55108 -0.55113,-1.34327 z" />
    <path
       inkscape:connector-curvature="0"
       id="path4302"
       style="font-style:normal;font-variant:normal;font-weight:normal;font-stretch:normal;font-size:34.44448853px;line-height:125%;font-family:ceva;-inkscape-font-specification:ceva;letter-spacing:0px;word-spacing:0px;fill:#000000;fill-opacity:1;stroke:none;stroke-width:1px;stroke-linecap:butt;stroke-linejoin:miter;stroke-opacity:1"
       d="m 290.16995,885.06044 q 0,-0.75774 0.51669,-1.30883 0.55114,-0.58552 1.3434,-0.58552 0.79227,0 1.3434,0.58552 0.55114,0.55109 0.55114,1.30883 0,0.79219 -0.55114,1.34327 -0.55113,0.55109 -1.3434,0.55109 -0.79226,0 -1.3434,-0.55109 -0.51669,-0.55108 -0.51669,-1.34327 z m 1.89454,7.85296 q -3.30683,0 -5.61472,-2.27322 -2.3079,-2.30767 -2.3079,-5.57974 0,-3.23762 2.3079,-5.54529 2.30789,-2.3421 5.58027,-2.3421 3.27239,0 5.61473,2.3421 2.3079,2.30767 2.3079,5.54529 l 0,0.30998 -3.2035,0 0,-0.30998 q 0,-1.96324 -1.37785,-3.30651 -1.37785,-1.41215 -3.30683,-1.41215 -1.99788,0 -3.37572,1.41215 -1.41229,1.34327 -1.41229,3.30651 0,1.96324 1.41229,3.37539 1.37784,1.41216 3.34127,1.41216 l 0.65448,0 0,3.06541 -0.62003,0 0,0 z" />
    <path
       inkscape:connector-curvature="0"
       id="path4304"
       style="font-style:normal;font-variant:normal;font-weight:normal;font-stretch:normal;font-size:34.44448853px;line-height:125%;font-family:ceva;-inkscape-font-specification:ceva;letter-spacing:0px;word-spacing:0px;fill:#000000;fill-opacity:1;stroke:none;stroke-width:1px;stroke-linecap:butt;stroke-linejoin:miter;stroke-opacity:1"
       d="m 303.08684,885.026 q 0,-3.23762 2.3079,-5.54529 2.3079,-2.34211 5.58028,-2.34211 3.27239,0 5.61472,2.34211 2.30791,2.30767 2.30791,5.54529 l 0,4.78755 -3.2035,0 0,-4.78755 q 0,-1.96324 -1.37785,-3.30651 -1.37785,-1.41216 -3.34128,-1.41216 -1.96343,0 -3.34128,1.41216 -1.4123,1.34327 -1.4123,3.30651 l 0,4.78755 -3.1346,0 0,-4.78755 z" />
    <path
       inkscape:connector-curvature="0"
       id="path4419"
       style="font-style:normal;font-variant:normal;font-weight:normal;font-stretch:normal;font-size:29.17684746px;line-height:125%;font-family:ceva;-inkscape-font-specification:ceva;letter-spacing:0px;word-spacing:0px;fill:#000000;fill-opacity:1;stroke:none;stroke-width:1px;stroke-linecap:butt;stroke-linejoin:miter;stroke-opacity:1"
       d="m 261.42408,1027.9644 q 0,2.7717 -1.95491,4.7265 -2.01326,1.9256 -4.75597,1.9256 -2.77189,0 -4.7268,-1.9256 -1.95491,-1.9548 -1.95491,-4.7265 0,-2.7426 1.95491,-4.6973 1.95491,-1.984 4.7268,-1.984 l 0.55438,0 0,2.6841 -0.55438,0 q -1.66313,0 -2.83025,1.1963 -1.19628,1.1379 -1.19628,2.8009 0,1.6631 1.19628,2.8592 1.16712,1.1963 2.83025,1.1963 1.66313,0 2.83024,-1.1963 1.16711,-1.167 1.16711,-2.8592 l 0,-0.2626 2.71353,0 0,0.2626 z" />
    <path
       inkscape:connector-curvature="0"
       id="path4421"
       style="font-style:normal;font-variant:normal;font-weight:normal;font-stretch:normal;font-size:29.17684746px;line-height:125%;font-family:ceva;-inkscape-font-specification:ceva;letter-spacing:0px;word-spacing:0px;fill:#000000;fill-opacity:1;stroke:none;stroke-width:1px;stroke-linecap:butt;stroke-linejoin:miter;stroke-opacity:1"
       d="m 272.13197,1026.6807 0,2.6842 -8.02389,0 0,-2.6842 8.02389,0 z" />
    <path
       inkscape:connector-curvature="0"
       id="path4423"
       style="font-style:normal;font-variant:normal;font-weight:normal;font-stretch:normal;font-size:29.17684746px;line-height:125%;font-family:ceva;-inkscape-font-specification:ceva;letter-spacing:0px;word-spacing:0px;fill:#000000;fill-opacity:1;stroke:none;stroke-width:1px;stroke-linecap:butt;stroke-linejoin:miter;stroke-opacity:1"
       d="m 281.76104,1021.2831 q 2.77189,0 4.75597,1.984 1.95491,1.9547 1.95491,4.6973 0,2.7717 -1.95491,4.7265 -2.01327,1.9256 -4.75597,1.9256 -2.77189,0 -4.7268,-1.9256 -1.95491,-1.9548 -1.95491,-4.7265 l 0,-16.251 2.65517,0 0,16.251 q 0,1.6631 1.19629,2.8592 1.16712,1.1963 2.83025,1.1963 1.66313,0 2.83024,-1.1963 1.16711,-1.167 1.16711,-2.8592 0,-1.663 -1.16711,-2.8009 -1.16711,-1.1963 -2.83024,-1.1963 l -0.5252,0 0,-2.6841 0.5252,0 z" />
    <path
       inkscape:connector-curvature="0"
       id="path4425"
       style="font-style:normal;font-variant:normal;font-weight:normal;font-stretch:normal;font-size:29.17684746px;line-height:125%;font-family:ceva;-inkscape-font-specification:ceva;letter-spacing:0px;word-spacing:0px;fill:#000000;fill-opacity:1;stroke:none;stroke-width:1px;stroke-linecap:butt;stroke-linejoin:miter;stroke-opacity:1"
       d="m 297.80845,1034.6165 q -2.77189,0 -4.7268,-1.9256 -1.95491,-1.9548 -1.95491,-4.7265 0,-2.7426 1.95491,-4.6973 1.95491,-1.984 4.7268,-1.984 2.77189,0 4.75597,1.984 1.95491,1.9547 1.95491,4.6973 l 0,4.0555 -2.71352,0 0,-4.0555 q 0,-1.663 -1.16712,-2.8009 -1.16711,-1.1963 -2.83024,-1.1963 -1.66313,0 -2.83025,1.1963 -1.19628,1.1379 -1.19628,2.8009 0,1.6631 1.19628,2.8592 1.16712,1.1963 2.83025,1.1963 l 0.55438,0 0,2.5966 -0.55438,0 z" />
    <path
       inkscape:connector-curvature="0"
       id="path4427"
       style="font-style:normal;font-variant:normal;font-weight:normal;font-stretch:normal;font-size:29.17684746px;line-height:125%;font-family:ceva;-inkscape-font-specification:ceva;letter-spacing:0px;word-spacing:0px;fill:#000000;fill-opacity:1;stroke:none;stroke-width:1px;stroke-linecap:butt;stroke-linejoin:miter;stroke-opacity:1"
       d="m 307.17415,1027.9644 q 0,-2.7426 1.95492,-4.6973 1.95491,-1.984 4.75596,-1.984 l 0.52521,0 0,2.6841 -0.52521,0 q -1.6923,0 -2.85942,1.1963 -1.19628,1.1379 -1.19628,2.8009 l 0,0.2626 -2.65518,0 0,-0.2626 z m 6.15651,4.0555 0.55437,0 q 1.63397,0 2.80107,-1.1963 1.16712,-1.167 1.16712,-2.8592 l 0,-0.2626 2.71352,0 0,0.2626 q 0,2.7717 -1.95491,4.7265 -2.01326,1.9256 -4.7268,1.9256 l -0.55437,0.029 0,-2.6258 z m -1.0504,-4.0555 q 0,-0.6419 0.43767,-1.1086 0.46684,-0.4961 1.13793,-0.4961 0.67108,0 1.13793,0.4961 0.46684,0.4667 0.46684,1.1086 0,0.671 -0.46684,1.1379 -0.46685,0.4668 -1.13793,0.4668 -0.67109,0 -1.13793,-0.4668 -0.43767,-0.4669 -0.43767,-1.1379 z" />
    <path
       inkscape:connector-curvature="0"
       id="path4429"
       style="font-style:normal;font-variant:normal;font-weight:normal;font-stretch:normal;font-size:29.17684746px;line-height:125%;font-family:ceva;-inkscape-font-specification:ceva;letter-spacing:0px;word-spacing:0px;fill:#000000;fill-opacity:1;stroke:none;stroke-width:1px;stroke-linecap:butt;stroke-linejoin:miter;stroke-opacity:1"
       d="m 328.32768,1027.9935 q 0,-0.6418 0.43766,-1.1086 0.46684,-0.496 1.13794,-0.496 0.67108,0 1.13792,0.496 0.46685,0.4668 0.46685,1.1086 0,0.6711 -0.46685,1.1379 -0.46684,0.4669 -1.13792,0.4669 -0.6711,0 -1.13794,-0.4669 -0.43766,-0.4668 -0.43766,-1.1379 z m 1.60477,6.6522 q -2.80106,0 -4.75597,-1.9256 -1.95491,-1.9549 -1.95491,-4.7266 0,-2.7425 1.95491,-4.6972 1.95491,-1.9841 4.7268,-1.9841 2.77188,0 4.75596,1.9841 1.95492,1.9547 1.95492,4.6972 l 0,0.2626 -2.71354,0 0,-0.2626 q 0,-1.6629 -1.16711,-2.8008 -1.1671,-1.1963 -2.80106,-1.1963 -1.69231,0 -2.85942,1.1963 -1.19629,1.1379 -1.19629,2.8008 0,1.6631 1.19629,2.8593 1.16711,1.1962 2.83025,1.1962 l 0.55437,0 0,2.5967 -0.5252,0 0,0 z" />
  </g>
</svg>
