<?xml version="1.0" encoding="UTF-8" standalone="no"?>
<!-- Created with Inkscape (http://www.inkscape.org/) -->

<svg
   xmlns:dc="http://purl.org/dc/elements/1.1/"
   xmlns:cc="http://creativecommons.org/ns#"
   xmlns:rdf="http://www.w3.org/1999/02/22-rdf-syntax-ns#"
   xmlns:svg="http://www.w3.org/2000/svg"
   xmlns="http://www.w3.org/2000/svg"
   xmlns:sodipodi="http://sodipodi.sourceforge.net/DTD/sodipodi-0.dtd"
   xmlns:inkscape="http://www.inkscape.org/namespaces/inkscape"
   width="111mm"
   height="55mm"
   viewBox="0 0 393.30709 194.88189"
   id="svg2"
   version="1.1"
   inkscape:version="0.91 r13725"
   sodipodi:docname="c-base_business_card_print.svg">
  <title
     id="title3336">c-base business card</title>
  <defs
     id="defs4">
    <inkscape:perspective
       id="perspective3522"
       inkscape:persp3d-origin="372.04725 : 350.78739 : 1"
       inkscape:vp_z="744.09449 : 526.18109 : 1"
       inkscape:vp_y="0 : 1000 : 0"
       inkscape:vp_x="0 : 526.18109 : 1"
       sodipodi:type="inkscape:persp3d" />
  </defs>
  <sodipodi:namedview
     id="base"
     pagecolor="#ffffff"
     bordercolor="#666666"
     borderopacity="1.0"
     inkscape:pageopacity="0.0"
     inkscape:pageshadow="2"
     inkscape:zoom="4.2897778"
     inkscape:cx="229.78623"
     inkscape:cy="108.10774"
     inkscape:document-units="px"
     inkscape:current-layer="layer1-1"
     showgrid="false"
     inkscape:window-width="1916"
     inkscape:window-height="1041"
     inkscape:window-x="0"
     inkscape:window-y="18"
     inkscape:window-maximized="0" />
  <metadata
     id="metadata7">
    <rdf:RDF>
      <cc:Work
         rdf:about="">
        <dc:format>image/svg+xml</dc:format>
        <dc:type
           rdf:resource="http://purl.org/dc/dcmitype/StillImage" />
        <dc:title>c-base business card</dc:title>
        <dc:date>2016-03-11</dc:date>
        <dc:creator>
          <cc:Agent>
            <dc:title>XenGi &lt;xen@c-base.org&gt;</dc:title>
          </cc:Agent>
        </dc:creator>
        <dc:rights>
          <cc:Agent>
            <dc:title />
          </cc:Agent>
        </dc:rights>
        <dc:publisher>
          <cc:Agent>
            <dc:title>XenGi &lt;xen@c-base.org&gt;</dc:title>
          </cc:Agent>
        </dc:publisher>
        <dc:language>en_US</dc:language>
        <dc:subject>
          <rdf:Bag>
            <rdf:li>c-base space station business card</rdf:li>
          </rdf:Bag>
        </dc:subject>
        <dc:description>business card for c-base members.
plot out the c-base logo and your member name and put it on a round piece of cardboard with a diameter of 55mm.</dc:description>
        <cc:license
           rdf:resource="http://creativecommons.org/publicdomain/zero/1.0/" />
      </cc:Work>
      <cc:License
         rdf:about="http://creativecommons.org/publicdomain/zero/1.0/">
        <cc:permits
           rdf:resource="http://creativecommons.org/ns#Reproduction" />
        <cc:permits
           rdf:resource="http://creativecommons.org/ns#Distribution" />
        <cc:permits
           rdf:resource="http://creativecommons.org/ns#DerivativeWorks" />
      </cc:License>
    </rdf:RDF>
  </metadata>
  <g
     inkscape:label="Layer 1"
     inkscape:groupmode="layer"
     id="layer1"
     transform="translate(0,-857.48031)">
    <g
       transform="matrix(0.13479541,0,0,0.13479541,-62.535252,877.76991)"
       id="layer1-1"
       inkscape:label="Ebene 1">
      <path
         d="m 1455.8177,572.94957 c 0,142.64661 -118.2906,260.05612 -262.0141,260.05612 -143.7305,0 -262.02112,-117.40951 -262.02112,-260.05612 0,-142.66058 118.29062,-260.07007 262.02112,-260.07007 143.7235,0 262.0141,117.40949 262.0141,260.07007 z M 1192.0575,-124.2349 c -384.98295,0 -701.84378,314.48488 -701.84378,696.59375 0,382.11585 316.86085,696.59375 701.84378,696.59375 159.1916,0 306.8446,-53.7484 425.1562,-143.8437 l -49.3438,-66.5938 c 0.1061,-0.081 0.2065,-0.1689 0.3126,-0.25 l -33.6563,-44.8438 c -94.8731,72.8165 -213.6296,116.3767 -341.6562,116.4688 l 0.031,-171.75 c 213.1713,-0.0344 388.5937,-174.18916 388.5937,-385.78125 10e-5,-107.4878 -45.2828,-205.31745 -117.7812,-275.5625 l 124.9375,-122 c -0.053,-0.0517 -0.1036,-0.10459 -0.1563,-0.15625 l 38,-37.375 C 1514.5272,27.2153 1360.8929,-41.14115 1192.4637,-41.14115 c -0.1355,0 -0.2707,-8.9e-5 -0.4062,0 l 0,-83.09375 z M 915.9787,283.29286 864.71431,231.00053 c 0,0 32.43272,-34.83126 76.70429,-60.14528 44.27855,-25.32101 78.8581,-38.30669 78.8581,-38.30669 l -13.7759,-31.54462 c 0,0 -41.78912,17.23033 -83.79499,41.98491 -34.13898,20.11136 -81.97689,65.09619 -81.97689,65.09619 l -27.32095,-25.29303 c 0,0 94.08844,-95.528962 217.74253,-130.933562 117.1997,-33.55856 218.0572,-20.26532 218.0572,-20.26532 l -16.2373,143.737532 c 0,0 -86.1796,-9.02774 -173.0095,19.64284 -83.27751,27.49579 -143.9822,88.31936 -143.9822,88.31936 m 381.0389,-99.66872 c 0,0 22.5939,7.08373 44.4464,13.92971 22.2232,6.96485 45.6212,23.22316 45.6212,23.22316 l 69.0122,-120.74507 c 0,0 -26.9014,-16.258322 -58.488,-29.027212 -31.5796,-12.76883 -61.9914,-18.57294 -61.9914,-18.57294 l -38.6004,131.192352 m 102.7386,44.71911 c 0,0 18.0555,10.38435 28.8524,17.97156 14.0346,9.87386 33.8383,30.60759 33.8383,30.60759 l 98.9274,-99.6827 c 0,0 -17.8596,-18.44707 -45.0337,-38.89409 -27.1811,-20.44701 -45.0898,-28.55169 -45.0898,-28.55169 l -71.4946,118.54933 m 46.1177,605.31976 -61.9564,-62.62772 c 0,0 -30.9643,27.35592 -79.6203,51.80983 -39.943,20.07639 -101.9064,24.11823 -101.9064,24.11823 l 1.4055,87.55715 c 0,0 73.2638,1.59436 139.9264,-31.0901 65.5158,-32.12502 102.1512,-69.76739 102.1512,-69.76739 m -304.041,-823.188172 -19.7827,2.06282 -3.7831,-35.79614 19.7827,-2.06298 3.7831,35.7963 m 165.2474,-27.66364 19.454,4.09783 -7.5452,35.20889 -19.447,-4.10487 7.5382,-35.20185 m 33.0341,7.3984796 19.2093,5.10478 -9.3844,34.7682504 -19.2093,-5.11166 9.3844,-34.7613704 m 30.6915,8.69898 18.9156,6.09782 -11.2025,34.2299104 -18.9156,-6.09782 11.2025,-34.2299104 M 604.51136,428.51981 l 5.14672,-19.06943 35.02706,9.32143 -5.14672,19.06245 -35.02706,-9.31445 m 364.92748,-375.102012 -18.16735,8.03465 -14.74089,-32.8872 18.16737,-8.02779 14.74087,32.88034 m -61.5788,-10.45435 17.71981,-8.9647 16.46111,32.06908 -17.71981,8.95783 -16.46111,-32.06221 m -27.93633,15.38421 17.21632,-9.86677 18.13239,31.16702 -17.21632,9.87382 -18.13239,-31.17407 m -26.307,17.22336 16.67788,-10.74789 19.74773,30.18096 -16.67788,10.754982 -19.74773,-30.188052 m -25.97134,18.1394 16.08348,-11.60108 21.31413,29.118112 -16.08349,11.60108 -21.31412,-29.118112 m -25.17418,19.537952 15.45415,-12.41925 22.81757,27.97129 -15.44714,12.41926 -22.82458,-27.9713 m -23.26512,21.09735 14.77584,-13.20945 24.2651,26.74756 -14.78284,13.20944 -24.2581,-26.74755 m -22.37703,21.64278 14.05557,-13.95767 25.64268,25.44688 -14.06256,13.95768 -25.63569,-25.44689 m -21.78265,23.2022 13.30735,-14.66395 26.94334,24.08328 -13.30733,14.66395 -26.94336,-24.08328 m -19.65683,24.45389 12.51017,-15.34224 28.18108,22.64975 -12.51016,15.33527 -28.18109,-22.64278 m -19.20928,25.61472 11.692,-15.96462 29.3349,21.15329 -11.69201,15.97161 -29.33489,-21.16028 m 23.384,29.35588 -10.83188,16.55899 -30.40479,-19.61486 10.83188,-16.55202 30.40479,19.60789 m -56.8027,24.14621 9.9438,-17.09046 31.40476,17.99253 -9.94379,17.09046 -31.40477,-17.99253 m -14.84576,27.8664 9.02773,-17.58695 32.31383,16.34224 -9.02773,17.57994 -32.31383,-16.33523 m -13.48917,28.7475 8.0907,-18.02749 33.12502,14.63597 -8.0907,18.0345 -33.12502,-14.64298 m -11.08361,29.28595 7.12568,-18.4261 33.85225,12.89476 -7.12568,18.42611 -33.85225,-12.89477 m -10.0347,29.36286 6.14668,-18.76875 34.48162,11.1186 -6.14669,18.77572 -34.48161,-11.12557 m 12.2654,225.32973 2.06988,19.62887 -36.05499,3.75513 -2.07687,-19.62884 36.06198,-3.75516 m -37.5025,-7.69909 -1.04193,-19.71277 36.21583,-1.88107 1.03493,19.71277 -36.20883,1.88107 m 366.24911,509.72085 -18.16735,-8.0277 14.74786,-32.8733 18.16736,8.0208 -14.74787,32.8802 m -310.34848,-300.58648 -8.0907,-18.0345 33.125,-14.63597 8.0907,18.03448 -33.125,14.63599 m 13.98564,28.29995 -9.02773,-17.58695 32.31383,-16.34222 9.02774,17.58694 -32.31384,16.34223 m 15.5031,27.72655 -9.93682,-17.09046 31.39779,-17.99953 9.94379,17.09745 -31.40476,17.99254 m 17.35617,26.11119 -10.83188,-16.552 30.41179,-19.60089 10.83189,16.55202 -30.4118,19.60087 m 18.0345,25.32103 -11.68501,-15.96462 29.33489,-21.1533 11.685,15.96462 -29.33488,21.1533 m 19.68479,24.98535 -12.51715,-15.33526 28.18108,-22.65675 12.51715,15.34226 -28.18108,22.64975 m 21.25119,23.09729 -13.30035,-14.67093 26.94336,-24.08329 13.30733,14.67094 -26.95034,24.08328 m 20.58687,24.01332 -14.05557,-13.95763 25.63569,-25.44689 14.06256,13.95768 -25.64268,25.44684 m 23.384,21.6149 -14.77583,-13.2025 24.25811,-26.74755 14.78283,13.20946 -24.26511,26.74059 m 24.62873,19.5169 -15.45415,-12.4262 22.82458,-27.9643 15.45415,12.4192 -22.82458,27.9713 m 25.41192,18.9086 -16.09048,-11.6011 21.31412,-29.1181 16.09048,11.6011 -21.31412,29.1181 m 29.56566,-23.2092 16.67088,10.755 -19.74073,30.174 -16.6709,-10.7479 19.74075,-30.1811 m 24.33502,56.3832 -17.22332,-9.8739 18.13239,-31.167 17.22333,9.8669 -18.1324,31.174 m 27.65662,14.4262 -17.71982,-8.9578 16.46111,-32.0691 17.71982,8.9648 -16.46111,32.0621 m 213.83352,59.5019 -19.7757,-2.0699 3.7901,-35.7893 19.7757,2.0629 -3.7901,35.7963 m 31.4817,1.4125 -19.8526,-1.0349 1.8951,-35.9431 19.8596,1.0349 -1.9021,35.9431 m 11.4053,-0.035 19.8862,0 0,-35.9913 -19.8862,0 0,35.9913 z m 51.7749,-0.6853 -19.8596,1.0279 -1.9021,-35.9431 19.8596,-1.0279 1.9021,35.9431 m 31.3138,-3.4964 -19.7757,2.0629 -3.7901,-35.7893 19.7757,-2.0629 3.7901,35.7893 m 32.0062,-4.2936 -19.6359,3.0838 -5.6711,-35.5445 19.6358,-3.0908 5.6712,35.5515 m 31.3698,-6.0698 -19.454,4.1048 -7.5383,-35.2089 19.447,-4.0978 7.5453,35.2019 m 30.3768,-8.3075 -19.2093,5.1048 -9.3843,-34.7613 19.2092,-5.1118 9.3844,34.7683 m 30.3489,-9.2864 -18.9086,6.0977 -11.2095,-34.2299 18.9156,-6.0977 11.2025,34.2299 m 30.0202,-10.8599 -18.566,7.0698 -12.9927,-33.6006 18.566,-7.0767 12.9927,33.6075 m 28.6985,-12.9297 -18.1603,8.0277 -14.7549,-32.8802 18.1673,-8.0278 14.7479,32.8803 m 28.0202,-13.7199 -17.7128,8.9578 -16.4681,-32.0691 17.7198,-8.9578 16.4611,32.0691 m 27.9364,-15.3912 -17.2164,9.8738 -18.1323,-31.174 17.2233,-9.8669 18.1254,31.1671 m 26.314,-17.2234 -16.6779,10.755 -19.7478,-30.188 16.6709,-10.748 19.7548,30.181 m -139.36,-498.23861 c 0,108.26987 -89.7739,197.37243 -198.8479,197.37243 -109.0811,0 -198.85494,-89.10256 -198.85494,-197.37243 0,-108.2629 89.77384,-197.36545 198.85494,-197.36545 109.074,0 198.8479,89.10255 198.8479,197.36545 M 939.50955,309.78866 1001.473,372.41638 c 0,0 30.9642,-27.35592 79.6203,-51.80983 39.943,-20.07639 101.8994,-24.11823 101.8994,-24.11823 l -1.4056,-87.55714 c 0,0 -73.2638,-1.59437 -139.9264,31.09009 -65.51575,32.12502 -102.15115,69.76739 -102.15115,69.76739 m 517.73465,5.1677 -63.1032,61.50188 c 0,0 27.5657,30.73345 52.2014,79.0259 20.2232,39.64231 24.2931,101.14419 24.2931,101.14419 l 88.2144,-1.39157 c 0,0 1.6154,-72.71837 -31.3208,-138.89146 -32.3628,-65.01927 -70.2849,-101.38894 -70.2849,-101.38894 m -526.4547,514.50397 63.10325,-61.4949 c 0,0 -27.56572,-30.73345 -52.20144,-79.03288 -20.23023,-39.64232 -24.30005,-101.13721 -24.30005,-101.13721 l -88.21448,1.39157 c 0,0 -1.60835,72.71837 31.32086,138.89146 32.36979,65.01927 70.29186,101.38196 70.29186,101.38196 M 1304.5,573.39712 c 0,-60.65575 -50.2994,-110.57053 -111.4097,-110.57053 -61.1103,0 -111.4027,49.91478 -111.4027,110.57053 0,60.65576 50.2924,110.57053 111.4027,110.57053 61.1103,0 111.4097,-49.91477 111.4097,-110.57053 z m 21.7127,-1.03493 c 0,73.05402 -60.5719,133.17132 -134.1643,133.17132 -73.5995,0 -134.1713,-60.1173 -134.1713,-133.17132 0,-73.04004 60.5718,-133.16434 134.1713,-133.16434 73.5924,0 134.1643,60.1243 134.1643,133.16434 m -144.3808,-180.13514 20.6008,0 0.3217,32.02714 -21.2232,0 0.3007,-32.02714 m 41.6982,2.29365 20.0484,4.73414 -7.0628,31.23694 -20.6568,-4.88099 7.6712,-31.09009 m 39.5933,11.34936 18.4191,9.22352 -14.0765,28.74051 -18.9855,-9.50325 14.6429,-28.46078 m 39.013,21.62879 15.7968,13.20945 -20.2303,24.75459 -16.2862,-13.61503 20.7197,-24.34901 m 29.8594,29.26497 12.3423,16.49608 -25.4119,19.43305 -12.713,-16.99257 25.7826,-18.93656 m 23.1252,34.21589 8.2166,18.88062 -29.1951,13.03462 -8.4613,-19.46103 29.4398,-12.45421 m 15.2653,39.38357 3.6433,20.27221 -31.3838,5.95787 -3.7621,-20.88755 31.5026,-5.34253 m 4.4405,42.07583 -1.1119,20.56588 -31.9292,-1.43352 1.1468,-21.18826 31.8943,2.0559 m -4.2167,40.83108 -5.811,19.74774 -30.7335,-8.76901 5.9929,-20.3631 30.5516,9.38437 m -14.8597,41.04789 -10.1956,17.88763 -27.9153,-15.57302 10.5172,-18.43308 27.5937,16.11847 m -23.0274,35.78226 -14.0416,15.05555 -23.5798,-21.57286 14.4751,-15.51708 23.1463,22.03439 m -29.7754,28.52373 -17.1325,11.42628 -17.9505,-26.43987 17.6499,-11.77591 17.4331,26.7895 m -37.2928,19.72676 -19.2932,7.18163 -11.4262,-29.92229 19.8876,-7.39841 10.8318,30.13907 m -40.8031,12.93672 -20.433,2.55238 -4.2517,-31.73343 21.0554,-2.6223 3.6293,31.80335 m -40.6842,3.24467 -20.468,-2.22371 3.1957,-31.83834 21.0904,2.28666 -3.8181,31.77539 m -42.0759,-6.62221 -19.412,-6.86694 10.4123,-30.25096 19.9995,7.07675 -10.9998,30.04115 m -39.0828,-15.53106 -17.3073,-11.14655 17.0835,-27.02726 17.8387,11.48921 -17.6149,26.6846 m -33.9152,-23.83853 -14.2794,-14.82478 22.8526,-22.34907 14.7129,15.27933 -23.2861,21.89452 m -28.4608,-32.01314 -10.4823,-17.71283 27.356,-16.49606 10.7969,18.25826 -27.6706,15.95063 m -19.7268,-36.27178 -6.1257,-19.64982 30.4188,-9.71304 6.3075,20.24422 -30.6006,9.11864 m -10.5032,-40.11782 -1.4405,-20.53093 31.8383,-2.42652 1.4895,21.1533 -31.8873,1.80415 m 59.6068,-159.80699 15.8038,-13.20245 20.8456,24.34202 -16.2793,13.60803 -20.3701,-24.7476 m 33.195,-24.41194 18.4121,-9.22354 14.6709,28.48177 -18.9785,9.50324 -14.1045,-28.76147 m 37.1948,-16.47511 20.0414,-4.74112 7.6781,31.08309 -20.6498,4.88099 -7.0697,-31.22296 m -131.1504,158.49235 3.3216,-20.31416 31.5516,4.96492 -3.4265,20.92951 -31.4467,-5.58027 m 8.6361,-39.76119 7.9019,-18.99951 29.5657,12.14654 -8.1397,19.57991 -29.3279,-12.72694 m 189.4706,302.52352 c 0,0 -27.5727,3.13978 -67.5367,-5.78307 -39.7682,-8.88089 -69.0472,-27.21607 -69.0472,-27.21607 l 17.8248,-31.77539 c 0,0 32.0411,15.50309 56.2222,20.90855 22.6988,5.07678 59.7607,4.35652 59.7607,4.35652 l 2.7762,39.50946 M 1435.979,634.13678 c 0,0 -5.5103,26.9993 -26.4189,61.9634 -20.7896,34.79629 -47.4113,56.77475 -47.4113,56.77475 l -24.8455,-26.64967 c 0,0 24.7476,-25.45387 37.4116,-46.61415 11.8738,-19.85262 22.6358,-55.06149 22.6358,-55.06149 l 38.6283,9.58716 m -477.06436,28.44681 c 0,0 -11.52418,-25.05528 -15.32128,-65.53675 -3.78312,-40.27865 4.73415,-73.59245 4.73415,-73.59245 l 35.9431,6.92987 c 0,0 -4.94392,35.03405 -2.65727,59.5369 2.15378,22.99241 14.29334,57.75373 14.29334,57.75373 l -36.99204,14.9087 M 1021.3675,391.0103 c 0,0 19.0905,-19.99247 55.4881,-38.64934 36.2088,-18.57292 70.5156,-23.20918 70.5156,-23.20918 l 6.9928,35.60048 c 0,0 -34.5795,8.56621 -56.6138,19.85262 -20.6708,10.59413 -48.6002,34.7893 -48.6002,34.7893 l -27.7825,-28.38388 m 290.3491,-37.45356 c 0,0 25.0552,11.83886 54.1873,40.43251 28.9853,28.4398 44.0269,59.39005 44.0269,59.39005 l -31.9852,17.51003 c 0,0 -18.8946,-29.99222 -36.5165,-47.29946 -16.5381,-16.24434 -48.3554,-35.12496 -48.3554,-35.12496 l 18.6429,-34.90817 m -99.7876,218.80545 c 0,10.83188 -8.9788,19.74073 -19.8806,19.74073 -10.9088,0 -19.8876,-8.90885 -19.8876,-19.74073 0,-10.82489 8.9788,-19.73375 19.8876,-19.73375 10.9018,0 19.8806,8.90886 19.8806,19.73375"
         style="fill:#000000;fill-opacity:1;fill-rule:evenodd;stroke:none;stroke-opacity:1"
         id="path4501"
         inkscape:connector-curvature="0" />
    </g>
    <circle
       id="path3433"
       cx="97.440948"
       cy="954.92126"
       style="fill:none;fill-opacity:1;stroke:#000000;stroke-width:1.00404501;stroke-linejoin:miter;stroke-miterlimit:4;stroke-dasharray:1.00404494, 1.00404494;stroke-dashoffset:0;stroke-opacity:1"
       r="97.824753" />
    <circle
       id="path3433-8"
       cx="295.86615"
       cy="954.92126"
       style="fill:none;fill-opacity:1;stroke:#000000;stroke-width:1.00393939;stroke-linejoin:miter;stroke-miterlimit:4;stroke-dasharray:1.00393938, 1.00393938;stroke-dashoffset:0;stroke-opacity:1"
       r="97.824799" />
    <text
       xml:space="preserve"
       style="font-style:normal;font-weight:normal;font-size:9.88751316px;line-height:125%;font-family:sans-serif;letter-spacing:0px;word-spacing:0px;fill:#000000;fill-opacity:1;stroke:none;stroke-width:1px;stroke-linecap:butt;stroke-linejoin:miter;stroke-opacity:1"
       x="295.71225"
       y="943.32397"
       id="text4250"
       sodipodi:linespacing="125%"><tspan
         sodipodi:role="line"
         id="tspan4252"
         x="295.71225"
         y="943.32397"
         style="font-style:normal;font-variant:normal;font-weight:bold;font-stretch:normal;font-size:12.35939026px;font-family:'DejaVu Sans Mono';-inkscape-font-specification:'DejaVu Sans Mono Bold';text-align:center;text-anchor:middle">xen@c-base.org</tspan><tspan
         sodipodi:role="line"
         x="295.71225"
         y="958.77319"
         id="tspan4264"
         style="font-style:normal;font-variant:normal;font-weight:bold;font-stretch:normal;font-size:12.35939026px;font-family:'DejaVu Sans Mono';-inkscape-font-specification:'DejaVu Sans Mono Bold';text-align:center;text-anchor:middle">C7A2 4BC3 9C14 052F CF24</tspan><tspan
         sodipodi:role="line"
         x="295.71225"
         y="974.22247"
         id="tspan4266"
         style="font-style:normal;font-variant:normal;font-weight:bold;font-stretch:normal;font-size:12.35939026px;font-family:'DejaVu Sans Mono';-inkscape-font-specification:'DejaVu Sans Mono Bold';text-align:center;text-anchor:middle">53C1 A16A DBEC C4F6 2C58</tspan><tspan
         sodipodi:role="line"
         x="295.71225"
         y="989.67169"
         id="tspan4262"
         style="font-style:normal;font-variant:normal;font-weight:bold;font-stretch:normal;font-size:12.35939026px;font-family:'DejaVu Sans Mono';-inkscape-font-specification:'DejaVu Sans Mono Bold';text-align:center;text-anchor:middle" /><tspan
         sodipodi:role="line"
         x="295.71225"
         y="1005.1209"
         id="tspan4254"
         style="font-style:normal;font-variant:normal;font-weight:bold;font-stretch:normal;font-size:12.35939026px;font-family:'DejaVu Sans Mono';-inkscape-font-specification:'DejaVu Sans Mono Bold';text-align:center;text-anchor:middle" /></text>
    <text
       xml:space="preserve"
       style="font-style:normal;font-weight:normal;font-size:11.48149586px;line-height:125%;font-family:sans-serif;letter-spacing:0px;word-spacing:0px;fill:#000000;fill-opacity:1;stroke:none;stroke-width:1px;stroke-linecap:butt;stroke-linejoin:miter;stroke-opacity:1"
       x="268.72702"
       y="891.44159"
       id="text4268"
       sodipodi:linespacing="125%"
       transform="scale(1.000049,0.99995101)"><tspan
         sodipodi:role="line"
         id="tspan4270"
         x="268.72702"
         y="891.44159"
         style="font-style:normal;font-variant:normal;font-weight:normal;font-stretch:normal;font-size:34.44448853px;font-family:ceva;-inkscape-font-specification:ceva">xen</tspan></text>
    <text
       xml:space="preserve"
       style="font-style:normal;font-weight:normal;font-size:9.72561646px;line-height:125%;font-family:sans-serif;letter-spacing:0px;word-spacing:0px;fill:#000000;fill-opacity:1;stroke:none;stroke-width:1px;stroke-linecap:butt;stroke-linejoin:miter;stroke-opacity:1"
       x="251.56691"
       y="1033.3943"
       id="text4274"
       sodipodi:linespacing="125%"
       transform="scale(1.0000313,0.9999687)"><tspan
         sodipodi:role="line"
         id="tspan4276"
         x="251.56691"
         y="1033.3943"
         style="font-style:normal;font-variant:normal;font-weight:normal;font-stretch:normal;font-size:29.17684746px;font-family:ceva;-inkscape-font-specification:ceva">c-base</tspan></text>
  </g>
</svg>
